<svg xmlns="http://www.w3.org/2000/svg" width="250" height="72" viewBox="0 0 250 72" fill="none">
<g clip-path="url(#clip0)">
<path d="M24.6176 32.107C17.1012 29.7588 10.3349 27.5072 10.3349 19.7148C10.3349 13.0515 15.0326 8.82654 24.7139 8.82654C27.775 8.62116 30.8397 9.16941 33.6404 10.4236C34.1094 10.705 34.3904 11.0782 34.6731 12.3873L36.0816 20.3662L42.5653 20.9291V4.97114C36.9847 2.83267 31.0648 1.71969 25.0898 1.68542C12.0293 1.68542 1.50807 7.41262 1.50807 20.8308C1.50807 35.005 12.4999 37.4464 21.9885 40.2626C29.3169 42.421 35.8006 44.8608 35.8006 53.1228C35.8006 61.2883 30.0685 64.9489 20.4852 64.9489C16.9143 64.9931 13.3601 64.4543 9.96233 63.3535C9.46554 63.265 9.01191 63.0145 8.67205 62.641C8.33219 62.2675 8.12518 61.7918 8.08324 61.2883L6.29892 53.0279H0.00317383V68.4212C6.30276 70.8232 12.993 72.0328 19.7336 71.9885C33.1698 71.9885 44.6322 66.7326 44.6322 52.1886C44.629 38.1077 34.0113 35.0164 24.6176 32.107Z" fill="#707070"/>
<path d="M73.799 64.9389C64.6863 64.9389 58.4837 59.8663 58.4837 46.6871C58.4837 33.2312 65.1552 28.3385 73.5164 28.3385C75.6764 28.2956 77.8305 28.5807 79.9053 29.1844C80.216 29.2408 80.4978 29.4028 80.7032 29.6431C80.9086 29.8833 81.025 30.1872 81.0327 30.5034L82.1618 36.7117L88.4559 36.9949V24.4815C83.9581 22.4991 79.0886 21.5043 74.1749 21.5639C59.8938 21.5639 49.5588 29.3726 49.5588 47.2548C49.5588 62.1228 56.4216 72.0016 72.4837 72.0016C78.6847 72.0016 84.9788 70.4028 88.549 68.0497L85.8252 61.8398C82.139 63.8655 78.0037 64.9311 73.799 64.9389V64.9389Z" fill="#707070"/>
<path d="M154.854 63.2701V-0.00158691H140.291L139.446 4.97462L145.083 6.7566C146.023 7.03969 146.304 7.6958 146.304 8.72835V63.2685C146.304 64.6757 146.116 65.0504 144.801 65.1453L138.975 65.7082L134.185 65.1453C132.774 64.9555 132.681 64.7707 132.681 63.2685V38.3956C132.681 25.4405 128.171 21.6868 114.828 21.6868C107.407 21.6868 96.6911 22.9959 96.6911 34.547L104.771 35.393C104.864 28.3566 109 28.1652 114.738 28.1652C122.908 28.1652 124.229 31.5425 124.229 38.3956V43.3702L111.544 44.4028C100.269 45.342 94.4443 49.7536 94.4443 59.1414C94.4443 63.9278 95.9476 72.0016 107.693 72.0016C110.87 71.9712 114.01 71.3083 116.929 70.0514C119.849 68.7946 122.489 66.9688 124.698 64.6805L124.98 64.7754L125.825 70.8758H161.998V65.8031L156.361 65.1485C154.948 64.9587 154.854 64.7804 154.854 63.2701ZM124.225 58.1057C121.312 60.8286 115.392 65.3351 109.846 65.3351C105.435 65.3351 103.27 63.27 103.27 58.2006C103.27 53.3193 105.524 50.9712 113.604 50.2217L124.225 49.2825V58.1057Z" fill="#707070"/>
<path d="M203.212 63.2503V38.3155C203.212 25.331 198.703 21.5671 185.361 21.5671C177.939 21.5671 167.224 22.8845 167.224 34.4569L175.304 35.3044C175.397 28.2468 179.533 28.0603 185.271 28.0603C193.441 28.0603 194.76 31.446 194.76 38.3155V43.3015L182.077 44.3372C170.802 45.2781 164.977 49.7011 164.977 59.1102C164.977 63.908 166.48 72 178.224 72C185.459 72 190.721 68.8909 195.23 64.6609L195.513 64.7558L196.358 70.8708H209.511V65.7981L204.719 65.1435C203.307 64.939 203.212 64.7557 203.212 63.2503ZM194.756 58.0745C191.845 60.804 185.933 65.3203 180.377 65.3203C175.966 65.3203 173.801 63.2503 173.801 58.1694C173.801 53.2767 176.055 50.9237 184.136 50.1709L194.756 49.2299V58.0745Z" fill="#707070"/>
<path d="M243.242 21.5671C236.853 21.5671 232.25 25.6124 229.149 29.0946L228.866 29.0013L227.926 22.5082H215.619L214.773 27.4958L220.129 29.2827C221.069 29.5658 221.35 30.2235 221.35 31.2577V63.2503C221.35 64.6608 221.163 64.9423 219.846 65.1321L215.15 65.6966V70.8708H240.047V65.7981L231.404 65.0454C229.995 64.9505 229.9 64.669 229.9 63.1636V34.83C232.062 32.76 236.853 28.903 241.082 28.903C241.926 28.903 242.114 29.0913 242.209 29.844L243.337 36.3354L250.006 36.6184V22.4099C247.791 21.8692 245.522 21.5864 243.242 21.5671V21.5671Z" fill="#707070"/>
</g>
<defs>
<clipPath id="clip0">
<rect width="250" height="72" fill="white"/>
</clipPath>
</defs>
</svg>